<?xml version="1.0" encoding="UTF-8"?>
<svg xmlns="http://www.w3.org/2000/svg" xmlns:xlink="http://www.w3.org/1999/xlink" width="648.025pt" height="595.278pt" viewBox="87.984 0.000 648.025 595.278" version="1.2">
<defs>
<clipPath id="clip1">
  <path d="M 88 142 L 411 142 L 411 594.554688 L 88 594.554688 Z M 88 142 "/>
</clipPath>
<clipPath id="clip2">
  <path d="M 410 435 L 736 435 L 736 594.554688 L 410 594.554688 Z M 410 435 "/>
</clipPath>
</defs>
<g id="surface1">
<path style=" stroke:none;fill-rule:nonzero;fill:rgb(16.099548%,17.298889%,45.098877%);fill-opacity:1;" d="M 402.3125 -38.691406 L 88.351562 142.101562 L 157.265625 183.054688 L 401.417969 42.714844 C 407.363281 39.296875 414.640625 39.128906 420.742188 42.269531 L 678.632812 175.0625 L 734.5625 143.101562 L 419.597656 -38.683594 C 414.25 -41.769531 407.664062 -41.773438 402.3125 -38.691406 "/>
<g clip-path="url(#clip1)" clip-rule="nonzero">
<path style=" stroke:none;fill-rule:nonzero;fill:rgb(0%,44.699097%,73.298645%);fill-opacity:1;" d="M 88.347656 142.101562 L 88.347656 506.207031 C 88.347656 511.4375 91.125 516.273438 95.636719 518.914062 L 410.957031 703.421875 L 410.957031 623.519531 L 156.265625 475.699219 L 157.265625 183.054688 Z M 88.347656 142.101562 "/>
</g>
<path style=" stroke:none;fill-rule:nonzero;fill:rgb(0%,44.699097%,73.298645%);fill-opacity:1;" d="M 213.199219 216.011719 L 410.957031 328.875 L 410.957031 408.777344 L 221.136719 300.035156 C 215.621094 296.875 212.25 290.976562 212.328125 284.617188 Z M 213.199219 216.011719 "/>
<path style=" stroke:none;fill-rule:nonzero;fill:rgb(45.098877%,43.499756%,63.09967%);fill-opacity:1;" d="M 734.5625 143.101562 L 734.5625 218.011719 L 410.957031 408.777344 L 410.957031 328.875 Z M 734.5625 143.101562 "/>
<path style=" stroke:none;fill-rule:nonzero;fill:rgb(74.499512%,35.699463%,53.69873%);fill-opacity:1;" d="M 735.5625 263.953125 L 735.5625 392.796875 L 410.957031 584.566406 L 410.957031 451.726562 Z M 735.5625 263.953125 "/>
<path style=" stroke:none;fill-rule:nonzero;fill:rgb(94.898987%,44.699097%,67.799377%);fill-opacity:1;" d="M 215.195312 338.863281 L 410.957031 451.726562 L 410.957031 584.566406 L 221.554688 473.039062 C 217 470.355469 214.222656 465.453125 214.261719 460.167969 Z M 215.195312 338.863281 "/>
<g clip-path="url(#clip2)" clip-rule="nonzero">
<path style=" stroke:none;fill-rule:nonzero;fill:rgb(45.098877%,43.499756%,63.09967%);fill-opacity:1;" d="M 735.5625 435.746094 L 735.5625 503.105469 C 735.5625 509.636719 732.097656 515.675781 726.460938 518.972656 L 410.957031 703.421875 L 410.957031 623.519531 Z M 735.5625 435.746094 "/>
</g>
</g>
</svg>
